Coordinates
version=1
nRows=6
nColumns=36
inDegrees=yes

Units are S.I. units (second, meters, Newtons, ...)
If the header above contains a line with 'inDegrees', this indicates whether rotational values are in degrees (yes) or radians (no).

endheader
time	pelvis_tilt	pelvis_list	pelvis_rotation	pelvis_tx	pelvis_ty	pelvis_tz	hip_flexion_r	hip_adduction_r	hip_rotation_r	knee_angle_r	knee_angle_r_beta	ankle_angle_r	subtalar_angle_r	mtp_angle_r	hip_flexion_l	hip_adduction_l	hip_rotation_l	knee_angle_l	knee_angle_l_beta	ankle_angle_l	subtalar_angle_l	mtp_angle_l	lumbar_extension	lumbar_bending	lumbar_rotation	arm_flex_r	arm_add_r	arm_rot_r	elbow_flex_r	pro_sup_r	arm_flex_l	arm_add_l	arm_rot_l	elbow_flex_l	pro_sup_l
      0.00000000	      3.32416378	     -0.77151720	      1.03686457	     -1.09032610	      1.41446465	     -0.05208402	     -4.68920199	      1.71349339	      2.74945158	      5.17063088	      0.09024453	      6.39978322	     -5.22456130	     -5.78212555	     -4.46091756	     -1.48296286	      0.85090668	      4.97482637	      0.08682710	      9.07005764	      0.82821671	     -5.78212555	    -10.75610195	      0.61585047	     -0.39266467	      2.35084263	     -5.84137150	     10.54474875	     28.30925071	     77.60628948	      1.72315625	     -5.92861253	     12.40237004	     30.40896906	     73.89323214
      0.00416670	      1.75584546	     -0.53116874	      1.46571198	     -1.08811340	      1.41251121	     -0.05276567	     -3.33825214	      1.69206858	      3.52249306	      4.85970417	      0.08481784	      7.54763010	     -3.12515914	     -5.93713744	     -2.71388566	     -0.79318552	      2.05631042	      4.76623459	      0.08318649	      7.94035307	      1.00202509	     -5.93713744	     -7.66641438	      0.19417551	     -0.76994745	      1.44485849	     -5.04294771	      7.99440978	     28.18746420	     76.93519648	      1.11323562	     -5.37704686	     10.18223099	     30.17455667	     73.18081991
      0.00833330	      0.97945131	      0.08370416	      1.28266232	     -1.08578818	      1.41195844	     -0.05076419	     -3.14400924	      1.12786233	      3.08342874	      3.69876313	      0.06455559	      7.40076442	     -2.41558087	     -6.94728853	     -2.20209688	     -0.17875446	      1.40653412	      4.37447117	      0.07634893	      7.40210345	      1.84593946	     -6.94728853	     -6.51710721	     -0.90514523	     -0.31258202	      0.65956649	     -3.80199683	      2.28450554	     29.19206537	     84.81506216	      1.17751390	     -5.53136498	      8.74246772	     30.40206516	     78.03270392
      0.01250000	      1.30668052	      0.39114059	      1.26291063	     -1.08529052	      1.41170803	     -0.05041828	     -3.78364233	      0.81844985	      3.01739856	      3.18781931	      0.05563794	      7.58760155	     -1.83828823	     -6.98011754	     -2.99746809	      0.16252611	      1.59215374	      3.72749659	      0.06505709	      7.13045779	      1.75210883	     -6.98011754	     -6.82085354	     -1.56596252	     -0.19320700	      0.58386013	     -3.50513242	      2.33924789	     29.68819772	     84.12499941	      1.27103069	     -5.93026232	      9.26434884	     31.06739869	     77.65337541
      0.01666670	      1.56574238	      0.48128950	      1.31029566	     -1.08456016	      1.40841423	     -0.05141436	     -4.29892013	      0.72871149	      2.55568259	      2.76644547	      0.04828358	      7.89950449	     -1.23024252	     -7.03394555	     -3.56731623	      0.33257976	      2.00333325	      3.26273875	      0.05694553	      7.30197056	      1.44603941	     -7.03394555	     -7.22552733	     -1.76440412	      0.01173014	      0.39158952	     -3.72101674	      3.56266113	     30.96910374	     82.71842895	      1.40839759	     -6.37018256	     11.41525697	     32.29795030	     77.39932040
      0.02083330	      1.60098459	      0.55607617	      1.00110629	     -1.08627952	      1.40320394	     -0.05063016	     -4.34935504	      0.65374100	      2.95746066	      2.68371867	      0.04683973	      8.01614524	     -1.60641741	     -7.10056676	     -3.69161356	      0.49658256	      1.97749934	      3.01693677	      0.05265548	      7.74050325	      1.64546080	     -7.10056676	     -7.23089022	     -1.93006624	      0.48283060	      0.51149071	     -4.03250865	      5.06636044	     31.67820705	     82.73304396	      1.69811248	     -6.54777448	     12.84051149	     33.09434096	     78.27367476
